<svg xmlns="http://www.w3.org/2000/svg" version="1.1" xmlns:xlink="http://www.w3.org/1999/xlink" xmlns:svgjs="http://svgjs.dev/svgjs" width="1000" height="1000" viewBox="0 0 1000 1000"><rect width="1000" height="1000" fill="#000000"></rect><g transform="matrix(0.7,0,0,0.7,149.57575757575756,282.1265587044535)"><svg viewBox="0 0 396 247" data-background-color="#ffffff" preserveAspectRatio="xMidYMid meet" height="623" width="1000" xmlns="http://www.w3.org/2000/svg" xmlns:xlink="http://www.w3.org/1999/xlink"><g id="tight-bounds" transform="matrix(1,0,0,1,0.2400000000000091,-0.09999999999999432)"><svg viewBox="0 0 395.52 247.2" height="247.2" width="395.52"><g><svg></svg></g><g><svg viewBox="0 0 395.52 247.2" height="247.2" width="395.52"><g mask="url(&quot;#67700f1b-d6b9-4376-aa65-423ef45166d6&quot;)"><g><path d="M106.959 234.306v0c-34.503 0-60.779-9.596-78.826-28.786-18.089-19.191-27.133-46.447-27.133-81.767v0c0-17.558 2.756-33.237 8.269-47.039 5.512-13.76 13.066-25.398 22.661-34.911 9.596-9.473 21.029-16.66 34.299-21.559 13.27-4.9 27.664-7.35 43.18-7.35v0c8.983 0 17.15 0.653 24.5 1.96 7.35 1.347 13.781 2.879 19.293 4.593 5.512 1.756 10.106 3.552 13.781 5.39 3.675 1.837 6.329 3.267 7.962 4.288v0l-13.781 38.586c-6.533-3.471-14.128-6.431-22.784-8.881-8.697-2.45-18.558-3.675-29.583-3.675v0c-7.35 0-14.557 1.225-21.621 3.675-7.023 2.45-13.23 6.37-18.619 11.76-5.431 5.431-9.779 12.433-13.046 21.008-3.267 8.575-4.9 18.987-4.9 31.236v0c0 9.8 1.082 18.926 3.246 27.378 2.123 8.493 5.594 15.802 10.412 21.927 4.777 6.125 11.045 10.963 18.804 14.516 7.758 3.593 17.15 5.39 28.174 5.39v0c6.941 0 13.168-0.408 18.681-1.225 5.512-0.817 10.412-1.797 14.699-2.94 4.287-1.102 8.064-2.368 11.331-3.797 3.267-1.429 6.227-2.756 8.881-3.981v0l13.168 38.28c-6.737 4.083-16.231 7.758-28.48 11.024-12.25 3.267-26.439 4.9-42.568 4.9zM256.405 56.993v134.133c2.246 0.204 4.859 0.347 7.84 0.429 2.94 0.122 6.451 0.184 10.535 0.184v0c23.887 0 41.608-6.023 53.163-18.069 11.515-12.045 17.272-28.685 17.272-49.917v0c0-22.254-5.512-39.097-16.537-50.53-11.025-11.433-28.48-17.15-52.367-17.149v0c-3.267 0-6.635 0.041-10.106 0.122-3.471 0.122-6.737 0.388-9.8 0.797zM394.52 123.753v0c0 18.374-2.858 34.401-8.575 48.08-5.716 13.679-13.822 25.01-24.315 33.993-10.535 8.983-23.356 15.72-38.464 20.212-15.108 4.492-32.053 6.737-50.836 6.737v0c-8.575 0-18.579-0.347-30.012-1.041-11.433-0.735-22.662-2.225-33.686-4.471v0-206.713c11.025-2.042 22.499-3.43 34.421-4.165 11.964-0.694 22.233-1.041 30.808-1.041v0c18.17 0 34.667 2.042 49.489 6.125 14.781 4.083 27.48 10.514 38.096 19.293 10.616 8.779 18.783 20.008 24.499 33.686 5.716 13.679 8.575 30.114 8.575 49.305z" fill="#ffffff" fill-rule="nonzero" stroke="none" stroke-width="1" stroke-linecap="butt" stroke-linejoin="miter" stroke-miterlimit="10" stroke-dasharray="" stroke-dashoffset="0" font-family="none" font-weight="none" font-size="none" text-anchor="none" style="mix-blend-mode: normal" data-fill-palette-color="tertiary"></path></g></g><g transform="matrix(1,0,0,1,0,87.67299448867115)"><svg viewBox="0 0 395.52 71.85401102265769" height="71.85401102265769" width="395.52"><g><svg viewBox="0 0 395.52 71.85401102265769" height="71.85401102265769" width="395.52"><g><svg viewBox="0 0 395.52 71.85401102265769" height="71.85401102265769" width="395.52"><g><svg viewBox="0 0 395.52 71.85401102265769" height="71.85401102265769" width="395.52"><g id="textblocktransform"><svg viewBox="0 0 395.52 71.85401102265769" height="71.85401102265769" width="395.52" id="textblock"><g><svg viewBox="0 0 395.52 71.85401102265769" height="71.85401102265769" width="395.52"><g transform="matrix(1,0,0,1,0,0)"><svg width="395.52" viewBox="-0.7500000000000004 -41.8 245.93 45.5" height="71.85401102265769" data-palette-color="#1c4b82"><path d="M2.25-13.15L2.25-13.15Q2.25-16 3.18-18.53 4.1-21.05 5.85-22.93 7.6-24.8 10.1-25.9 12.6-27 15.8-27L15.8-27Q17.9-27 19.65-26.63 21.4-26.25 23.05-25.55L23.05-25.55 21.5-19.6Q20.45-20 19.2-20.3 17.95-20.6 16.4-20.6L16.4-20.6Q13.1-20.6 11.48-18.55 9.85-16.5 9.85-13.15L9.85-13.15Q9.85-9.6 11.38-7.65 12.9-5.7 16.7-5.7L16.7-5.7Q18.05-5.7 19.6-5.95 21.15-6.2 22.45-6.75L22.45-6.75 23.5-0.65Q22.2-0.1 20.25 0.3 18.3 0.7 15.95 0.7L15.95 0.7Q12.35 0.7 9.75-0.38 7.15-1.45 5.48-3.3 3.8-5.15 3.03-7.68 2.25-10.2 2.25-13.15ZM37.3-5.2L37.3-5.2Q38.4-5.2 39.4-5.25 40.4-5.3 41-5.4L41-5.4 41-11.05Q40.55-11.15 39.65-11.25 38.75-11.35 38-11.35L38-11.35Q36.95-11.35 36.02-11.23 35.1-11.1 34.4-10.75 33.7-10.4 33.3-9.8 32.9-9.2 32.9-8.3L32.9-8.3Q32.9-6.55 34.07-5.88 35.25-5.2 37.3-5.2ZM36.7-27L36.7-27Q40-27 42.2-26.25 44.4-25.5 45.72-24.1 47.05-22.7 47.6-20.7 48.15-18.7 48.15-16.25L48.15-16.25 48.15-0.75Q46.55-0.4 43.7 0.08 40.85 0.55 36.8 0.55L36.8 0.55Q34.25 0.55 32.17 0.1 30.1-0.35 28.6-1.38 27.1-2.4 26.3-4.05 25.5-5.7 25.5-8.1L25.5-8.1Q25.5-10.4 26.42-12 27.35-13.6 28.9-14.55 30.45-15.5 32.45-15.93 34.45-16.35 36.6-16.35L36.6-16.35Q38.05-16.35 39.17-16.23 40.3-16.1 41-15.9L41-15.9 41-16.6Q41-18.5 39.85-19.65 38.7-20.8 35.85-20.8L35.85-20.8Q33.95-20.8 32.1-20.53 30.25-20.25 28.9-19.75L28.9-19.75 27.95-25.75Q28.6-25.95 29.57-26.18 30.55-26.4 31.7-26.58 32.85-26.75 34.12-26.88 35.4-27 36.7-27ZM72-25.85L70.75-19.7Q69.75-19.95 68.4-20.23 67.05-20.5 65.5-20.5L65.5-20.5Q64.8-20.5 63.82-20.38 62.85-20.25 62.35-20.1L62.35-20.1 62.35 0 54.9 0 54.9-24.9Q56.9-25.6 59.62-26.23 62.35-26.85 65.7-26.85L65.7-26.85Q66.3-26.85 67.15-26.78 68-26.7 68.84-26.58 69.7-26.45 70.55-26.28 71.4-26.1 72-25.85L72-25.85ZM94.34-13.35L94.34-13.35Q94.34-9.9 95.89-7.8 97.44-5.7 100.49-5.7L100.49-5.7Q101.49-5.7 102.34-5.78 103.19-5.85 103.74-5.95L103.74-5.95 103.74-19.5Q103.04-19.95 101.92-20.25 100.79-20.55 99.64-20.55L99.64-20.55Q94.34-20.55 94.34-13.35ZM111.19-38.8L111.19-0.85Q110.19-0.55 108.89-0.28 107.59 0 106.17 0.2 104.74 0.4 103.27 0.53 101.79 0.65 100.44 0.65L100.44 0.65Q97.19 0.65 94.64-0.3 92.09-1.25 90.34-3.03 88.59-4.8 87.67-7.33 86.74-9.85 86.74-13L86.74-13Q86.74-16.2 87.54-18.78 88.34-21.35 89.84-23.15 91.34-24.95 93.52-25.9 95.69-26.85 98.49-26.85L98.49-26.85Q100.04-26.85 101.27-26.55 102.49-26.25 103.74-25.7L103.74-25.7 103.74-37.6 111.19-38.8ZM142.79-13.2L142.79-13.2Q142.79-10.1 141.89-7.53 140.99-4.95 139.29-3.13 137.59-1.3 135.21-0.3 132.84 0.7 129.89 0.7L129.89 0.7Q126.99 0.7 124.61-0.3 122.24-1.3 120.54-3.13 118.84-4.95 117.89-7.53 116.94-10.1 116.94-13.2L116.94-13.2Q116.94-16.3 117.91-18.85 118.89-21.4 120.61-23.2 122.34-25 124.71-26 127.09-27 129.89-27L129.89-27Q132.74-27 135.11-26 137.49-25 139.19-23.2 140.89-21.4 141.84-18.85 142.79-16.3 142.79-13.2ZM135.19-13.2L135.19-13.2Q135.19-16.65 133.81-18.63 132.44-20.6 129.89-20.6L129.89-20.6Q127.34-20.6 125.94-18.63 124.54-16.65 124.54-13.2L124.54-13.2Q124.54-9.75 125.94-7.73 127.34-5.7 129.89-5.7L129.89-5.7Q132.44-5.7 133.81-7.73 135.19-9.75 135.19-13.2ZM147.29-13.15L147.29-13.15Q147.29-16 148.21-18.53 149.14-21.05 150.89-22.93 152.64-24.8 155.14-25.9 157.64-27 160.84-27L160.84-27Q162.94-27 164.69-26.63 166.44-26.25 168.09-25.55L168.09-25.55 166.54-19.6Q165.49-20 164.24-20.3 162.99-20.6 161.44-20.6L161.44-20.6Q158.14-20.6 156.51-18.55 154.89-16.5 154.89-13.15L154.89-13.15Q154.89-9.6 156.41-7.65 157.94-5.7 161.74-5.7L161.74-5.7Q163.09-5.7 164.64-5.95 166.19-6.2 167.49-6.75L167.49-6.75 168.54-0.65Q167.24-0.1 165.29 0.3 163.34 0.7 160.99 0.7L160.99 0.7Q157.39 0.7 154.79-0.38 152.19-1.45 150.51-3.3 148.84-5.15 148.06-7.68 147.29-10.2 147.29-13.15ZM173.28-10.75L173.28-32.85 180.73-34.05 180.73-26.3 189.68-26.3 189.68-20.1 180.73-20.1 180.73-10.85Q180.73-8.5 181.56-7.1 182.38-5.7 184.88-5.7L184.88-5.7Q186.08-5.7 187.36-5.93 188.63-6.15 189.68-6.55L189.68-6.55 190.73-0.75Q189.38-0.2 187.73 0.2 186.08 0.6 183.68 0.6L183.68 0.6Q180.63 0.6 178.63-0.23 176.63-1.05 175.43-2.53 174.23-4 173.76-6.1 173.28-8.2 173.28-10.75L173.28-10.75ZM219.33-13.2L219.33-13.2Q219.33-10.1 218.43-7.53 217.53-4.95 215.83-3.13 214.13-1.3 211.76-0.3 209.38 0.7 206.43 0.7L206.43 0.7Q203.53 0.7 201.16-0.3 198.78-1.3 197.08-3.13 195.38-4.95 194.43-7.53 193.48-10.1 193.48-13.2L193.48-13.2Q193.48-16.3 194.46-18.85 195.43-21.4 197.16-23.2 198.88-25 201.26-26 203.63-27 206.43-27L206.43-27Q209.28-27 211.66-26 214.03-25 215.73-23.2 217.43-21.4 218.38-18.85 219.33-16.3 219.33-13.2ZM211.73-13.2L211.73-13.2Q211.73-16.65 210.36-18.63 208.98-20.6 206.43-20.6L206.43-20.6Q203.88-20.6 202.48-18.63 201.08-16.65 201.08-13.2L201.08-13.2Q201.08-9.75 202.48-7.73 203.88-5.7 206.43-5.7L206.43-5.7Q208.98-5.7 210.36-7.73 211.73-9.75 211.73-13.2ZM242.18-25.85L240.93-19.7Q239.93-19.95 238.58-20.23 237.23-20.5 235.68-20.5L235.68-20.5Q234.98-20.5 234-20.38 233.03-20.25 232.53-20.1L232.53-20.1 232.53 0 225.08 0 225.08-24.9Q227.08-25.6 229.8-26.23 232.53-26.85 235.88-26.85L235.88-26.85Q236.48-26.85 237.33-26.78 238.18-26.7 239.03-26.58 239.88-26.45 240.73-26.28 241.58-26.1 242.18-25.85L242.18-25.85Z" opacity="1" transform="matrix(1,0,0,1,0,0)" fill="#ffffff" class="undefined-text-0" data-fill-palette-color="primary" id="text-0"></path></svg></g></svg></g></svg></g></svg></g></svg></g></svg></g></svg></g></svg></g><defs><mask id="67700f1b-d6b9-4376-aa65-423ef45166d6"><rect width="395.52" height="247.2" fill="white"></rect><g transform="matrix(1,0,0,1,0,87.67299448867115)" id="clone"><svg viewBox="0 0 395.52 71.85401102265769" height="71.85401102265769" width="395.52"><g><svg viewBox="0 0 395.52 71.85401102265769" height="71.85401102265769" width="395.52"><g><svg viewBox="0 0 395.52 71.85401102265769" height="71.85401102265769" width="395.52"><g><svg viewBox="0 0 395.52 71.85401102265769" height="71.85401102265769" width="395.52"><g id="SvgjsG1561"><svg viewBox="0 0 395.52 71.85401102265769" height="71.85401102265769" width="395.52" id="SvgjsSvg1560"><g><svg viewBox="0 0 395.52 71.85401102265769" height="71.85401102265769" width="395.52"><g transform="matrix(1,0,0,1,0,0)"><svg width="395.52" viewBox="-0.7500000000000004 -41.8 245.93 45.5" height="71.85401102265769" data-palette-color="#1c4b82"><path d="M2.25-13.15L2.25-13.15Q2.25-16 3.18-18.53 4.1-21.05 5.85-22.93 7.6-24.8 10.1-25.9 12.6-27 15.8-27L15.8-27Q17.9-27 19.65-26.63 21.4-26.25 23.05-25.55L23.05-25.55 21.5-19.6Q20.45-20 19.2-20.3 17.95-20.6 16.4-20.6L16.4-20.6Q13.1-20.6 11.48-18.55 9.85-16.5 9.85-13.15L9.85-13.15Q9.85-9.6 11.38-7.65 12.9-5.7 16.7-5.7L16.7-5.7Q18.05-5.7 19.6-5.95 21.15-6.2 22.45-6.75L22.45-6.75 23.5-0.65Q22.2-0.1 20.25 0.3 18.3 0.7 15.95 0.7L15.95 0.7Q12.35 0.7 9.75-0.38 7.15-1.45 5.48-3.3 3.8-5.15 3.03-7.68 2.25-10.2 2.25-13.15ZM37.3-5.2L37.3-5.2Q38.4-5.2 39.4-5.25 40.4-5.3 41-5.4L41-5.4 41-11.05Q40.55-11.15 39.65-11.25 38.75-11.35 38-11.35L38-11.35Q36.95-11.35 36.02-11.23 35.1-11.1 34.4-10.75 33.7-10.4 33.3-9.8 32.9-9.2 32.9-8.3L32.9-8.3Q32.9-6.55 34.07-5.88 35.25-5.2 37.3-5.2ZM36.7-27L36.7-27Q40-27 42.2-26.25 44.4-25.5 45.72-24.1 47.05-22.7 47.6-20.7 48.15-18.7 48.15-16.25L48.15-16.25 48.15-0.75Q46.55-0.4 43.7 0.08 40.85 0.55 36.8 0.55L36.8 0.55Q34.25 0.55 32.17 0.1 30.1-0.35 28.6-1.38 27.1-2.4 26.3-4.05 25.5-5.7 25.5-8.1L25.5-8.1Q25.5-10.4 26.42-12 27.35-13.6 28.9-14.55 30.45-15.5 32.45-15.93 34.45-16.35 36.6-16.35L36.6-16.35Q38.05-16.35 39.17-16.23 40.3-16.1 41-15.9L41-15.9 41-16.6Q41-18.5 39.85-19.65 38.7-20.8 35.85-20.8L35.85-20.8Q33.95-20.8 32.1-20.53 30.25-20.25 28.9-19.75L28.9-19.75 27.95-25.75Q28.6-25.95 29.57-26.18 30.55-26.4 31.7-26.58 32.85-26.75 34.12-26.88 35.4-27 36.7-27ZM72-25.85L70.75-19.7Q69.75-19.95 68.4-20.23 67.05-20.5 65.5-20.5L65.5-20.5Q64.8-20.5 63.82-20.38 62.85-20.25 62.35-20.1L62.35-20.1 62.35 0 54.9 0 54.9-24.9Q56.9-25.6 59.62-26.23 62.35-26.85 65.7-26.85L65.7-26.85Q66.3-26.85 67.15-26.78 68-26.7 68.84-26.58 69.7-26.45 70.55-26.28 71.4-26.1 72-25.85L72-25.85ZM94.34-13.35L94.34-13.35Q94.34-9.9 95.89-7.8 97.44-5.7 100.49-5.7L100.49-5.7Q101.49-5.7 102.34-5.78 103.19-5.85 103.74-5.95L103.74-5.95 103.74-19.5Q103.04-19.95 101.92-20.25 100.79-20.55 99.64-20.55L99.64-20.55Q94.34-20.55 94.34-13.35ZM111.19-38.8L111.19-0.85Q110.19-0.55 108.89-0.28 107.59 0 106.17 0.2 104.74 0.4 103.27 0.53 101.79 0.65 100.44 0.65L100.44 0.65Q97.19 0.65 94.64-0.3 92.09-1.25 90.34-3.03 88.59-4.8 87.67-7.33 86.74-9.85 86.74-13L86.74-13Q86.74-16.2 87.54-18.78 88.34-21.35 89.84-23.15 91.34-24.95 93.52-25.9 95.69-26.85 98.49-26.85L98.49-26.85Q100.04-26.85 101.27-26.55 102.49-26.25 103.74-25.7L103.74-25.7 103.74-37.6 111.19-38.8ZM142.79-13.2L142.79-13.2Q142.79-10.1 141.89-7.53 140.99-4.95 139.29-3.13 137.59-1.3 135.21-0.3 132.84 0.7 129.89 0.7L129.89 0.7Q126.99 0.7 124.61-0.3 122.24-1.3 120.54-3.13 118.84-4.95 117.89-7.53 116.94-10.1 116.94-13.2L116.94-13.2Q116.94-16.3 117.91-18.85 118.89-21.4 120.61-23.2 122.34-25 124.71-26 127.09-27 129.89-27L129.89-27Q132.74-27 135.11-26 137.49-25 139.19-23.2 140.89-21.4 141.84-18.85 142.79-16.3 142.79-13.2ZM135.19-13.2L135.19-13.2Q135.19-16.65 133.81-18.63 132.44-20.6 129.89-20.6L129.89-20.6Q127.34-20.6 125.94-18.63 124.54-16.65 124.54-13.2L124.54-13.2Q124.54-9.75 125.94-7.73 127.34-5.7 129.89-5.7L129.89-5.7Q132.44-5.7 133.81-7.73 135.19-9.75 135.19-13.2ZM147.29-13.15L147.29-13.15Q147.29-16 148.21-18.53 149.14-21.05 150.89-22.93 152.64-24.8 155.14-25.9 157.64-27 160.84-27L160.84-27Q162.94-27 164.69-26.63 166.44-26.25 168.09-25.55L168.09-25.55 166.54-19.6Q165.49-20 164.24-20.3 162.99-20.6 161.44-20.6L161.44-20.6Q158.14-20.6 156.51-18.55 154.89-16.5 154.89-13.15L154.89-13.15Q154.89-9.6 156.41-7.65 157.94-5.7 161.74-5.7L161.74-5.7Q163.09-5.7 164.64-5.95 166.19-6.2 167.49-6.75L167.49-6.75 168.54-0.65Q167.24-0.1 165.29 0.3 163.34 0.7 160.99 0.7L160.99 0.7Q157.39 0.7 154.79-0.38 152.19-1.45 150.51-3.3 148.84-5.15 148.06-7.68 147.29-10.2 147.29-13.15ZM173.28-10.75L173.28-32.85 180.73-34.05 180.73-26.3 189.68-26.3 189.68-20.1 180.73-20.1 180.73-10.85Q180.73-8.5 181.56-7.1 182.38-5.7 184.88-5.7L184.88-5.7Q186.08-5.7 187.36-5.93 188.63-6.15 189.68-6.55L189.68-6.55 190.73-0.75Q189.38-0.2 187.73 0.2 186.08 0.6 183.68 0.6L183.68 0.6Q180.63 0.6 178.63-0.23 176.63-1.05 175.43-2.53 174.23-4 173.76-6.1 173.28-8.2 173.28-10.75L173.28-10.75ZM219.33-13.2L219.33-13.2Q219.33-10.1 218.43-7.53 217.53-4.95 215.83-3.13 214.13-1.3 211.76-0.3 209.38 0.7 206.43 0.7L206.43 0.7Q203.53 0.7 201.16-0.3 198.78-1.3 197.08-3.13 195.38-4.95 194.43-7.53 193.48-10.1 193.48-13.2L193.48-13.2Q193.48-16.3 194.46-18.85 195.43-21.4 197.16-23.2 198.88-25 201.26-26 203.63-27 206.43-27L206.43-27Q209.28-27 211.66-26 214.03-25 215.73-23.2 217.43-21.4 218.38-18.85 219.33-16.3 219.33-13.2ZM211.73-13.2L211.73-13.2Q211.73-16.65 210.36-18.63 208.98-20.6 206.43-20.6L206.43-20.6Q203.88-20.6 202.48-18.63 201.08-16.65 201.08-13.2L201.08-13.2Q201.08-9.75 202.48-7.73 203.88-5.7 206.43-5.7L206.43-5.7Q208.98-5.7 210.36-7.73 211.73-9.75 211.73-13.2ZM242.18-25.85L240.93-19.7Q239.93-19.95 238.58-20.23 237.23-20.5 235.68-20.5L235.68-20.5Q234.98-20.5 234-20.38 233.03-20.25 232.53-20.1L232.53-20.1 232.53 0 225.08 0 225.08-24.9Q227.08-25.6 229.8-26.23 232.53-26.85 235.88-26.85L235.88-26.85Q236.48-26.85 237.33-26.78 238.18-26.7 239.03-26.58 239.88-26.45 240.73-26.28 241.58-26.1 242.18-25.85L242.18-25.85Z" opacity="1" transform="matrix(1,0,0,1,0,0)" fill="#ffffff" class="undefined-text-0" data-fill-palette-color="primary" id="SvgjsPath1559" stroke-width="5" stroke="black" stroke-linejoin="round"></path></svg></g></svg></g></svg></g></svg></g></svg></g></svg></g></svg></g></mask></defs></svg><rect width="395.52" height="247.2" fill="none" stroke="none" visibility="hidden"></rect></g></svg></g></svg>